<svg width="118" height="38" viewBox="0 0 118 38" fill="none" xmlns="http://www.w3.org/2000/svg">
<path d="M1.70632 23V0.454545H7.15554V18.5746H16.5348V23H1.70632ZM28.0952 15.7013V6.09091H33.4673V23H28.3374V19.8516H28.1612C27.7869 20.8864 27.1484 21.7083 26.2457 22.3175C25.3504 22.9193 24.2679 23.2202 22.9982 23.2202C21.846 23.2202 20.8332 22.956 19.9599 22.4276C19.0865 21.8991 18.4077 21.1616 17.9233 20.2148C17.4389 19.2608 17.1931 18.1452 17.1857 16.8683V6.09091H22.5689V15.8114C22.5762 16.7288 22.8184 17.4517 23.2955 17.9801C23.7725 18.5085 24.422 18.7727 25.244 18.7727C25.7797 18.7727 26.2604 18.6553 26.6861 18.4205C27.1191 18.1783 27.4604 17.8297 27.7099 17.3746C27.9667 16.9123 28.0952 16.3545 28.0952 15.7013ZM39.3033 6.09091L42.0884 11.6612L44.9727 6.09091H50.3999L45.6772 14.5455L50.576 23H45.1928L42.0884 17.3857L39.0611 23H33.6009L38.5107 14.5455L33.8431 6.09091H39.3033ZM55.1777 23V0.454545H64.4909C66.1789 0.454545 67.6357 0.784801 68.8613 1.44531C70.0942 2.09848 71.0446 3.01219 71.7125 4.18643C72.3803 5.35334 72.7143 6.71106 72.7143 8.25959C72.7143 9.81546 72.373 11.1768 71.6905 12.3438C71.0153 13.5033 70.0502 14.4023 68.7952 15.0408C67.5403 15.6793 66.0504 15.9986 64.3258 15.9986H58.5793V11.7053H63.313C64.135 11.7053 64.8212 11.5621 65.3716 11.2759C65.9293 10.9897 66.3513 10.5897 66.6376 10.076C66.9238 9.55492 67.0669 8.94945 67.0669 8.25959C67.0669 7.56238 66.9238 6.96058 66.6376 6.45419C66.3513 5.94046 65.9293 5.54415 65.3716 5.26527C64.8138 4.98639 64.1276 4.84695 63.313 4.84695H60.6269V23H55.1777ZM73.2303 23V6.09091H78.4594V9.17329H78.6355C78.9438 8.05776 79.4465 7.22846 80.1437 6.68537C80.8409 6.13494 81.6519 5.85973 82.5766 5.85973C82.8261 5.85973 83.083 5.87808 83.3472 5.91477C83.6114 5.94413 83.8572 5.99183 84.0847 6.05788V10.7365C83.8279 10.6484 83.4903 10.5787 83.072 10.5273C82.661 10.476 82.294 10.4503 81.9711 10.4503C81.3326 10.4503 80.7565 10.5934 80.2428 10.8796C79.7364 11.1585 79.3364 11.5511 79.0428 12.0575C78.7566 12.5566 78.6135 13.1437 78.6135 13.8189V23H73.2303ZM91.1344 23.3192C89.3657 23.3192 87.8392 22.9706 86.5548 22.2734C85.2778 21.5689 84.2944 20.5671 83.6046 19.2681C82.922 17.9618 82.5808 16.4096 82.5808 14.6115C82.5808 12.8648 82.9257 11.3383 83.6156 10.032C84.3054 8.71828 85.2778 7.69815 86.5328 6.97159C87.7878 6.23769 89.2666 5.87074 90.9693 5.87074C92.1729 5.87074 93.2737 6.05788 94.2718 6.43217C95.2699 6.80646 96.1323 7.36056 96.8588 8.09446C97.5854 8.82836 98.1505 9.73473 98.5541 10.8136C98.9578 11.8851 99.1596 13.1143 99.1596 14.5014V15.8445H84.4632V12.718H94.1507C94.1434 12.1456 94.0076 11.6355 93.7434 11.1879C93.4792 10.7402 93.1159 10.3916 92.6536 10.142C92.1985 9.88518 91.6738 9.75675 91.0793 9.75675C90.4775 9.75675 89.9381 9.89252 89.4611 10.1641C88.9841 10.4283 88.6061 10.7915 88.3272 11.2539C88.0483 11.7089 87.9015 12.2263 87.8869 12.8061V15.9876C87.8869 16.6774 88.0226 17.2829 88.2942 17.804C88.5657 18.3177 88.951 18.7177 89.4501 19.0039C89.9491 19.2901 90.5436 19.4332 91.2335 19.4332C91.7105 19.4332 92.1435 19.3672 92.5325 19.2351C92.9214 19.103 93.2554 18.9085 93.5342 18.6516C93.8131 18.3948 94.0223 18.0792 94.1617 17.7049L99.1046 17.848C98.8991 18.9562 98.4477 19.9213 97.7505 20.7433C97.0606 21.5579 96.1543 22.1927 95.0314 22.6477C93.9085 23.0954 92.6095 23.3192 91.1344 23.3192ZM99.739 29.3409V6.09091H105.067V8.98615H105.232C105.452 8.47242 105.764 7.97704 106.168 7.5C106.579 7.02296 107.1 6.634 107.731 6.3331C108.37 6.02486 109.133 5.87074 110.021 5.87074C111.195 5.87074 112.292 6.17898 113.312 6.79545C114.34 7.41193 115.169 8.36233 115.8 9.64666C116.432 10.931 116.747 12.5676 116.747 14.5565C116.747 16.4719 116.443 18.0755 115.833 19.3672C115.232 20.6589 114.417 21.6276 113.39 22.2734C112.369 22.9193 111.236 23.2422 109.988 23.2422C109.137 23.2422 108.399 23.1027 107.775 22.8239C107.151 22.545 106.627 22.178 106.201 21.723C105.783 21.268 105.46 20.7799 105.232 20.2589H105.122V29.3409H99.739ZM105.012 14.5455C105.012 15.4555 105.133 16.2481 105.375 16.9233C105.625 17.5985 105.981 18.1232 106.443 18.4975C106.913 18.8645 107.474 19.0479 108.127 19.0479C108.788 19.0479 109.349 18.8645 109.812 18.4975C110.274 18.1232 110.623 17.5985 110.858 16.9233C111.1 16.2481 111.221 15.4555 111.221 14.5455C111.221 13.6354 111.1 12.8465 110.858 12.1786C110.623 11.5108 110.274 10.9934 109.812 10.6264C109.357 10.2595 108.795 10.076 108.127 10.076C107.467 10.076 106.906 10.2558 106.443 10.6154C105.981 10.975 105.625 11.4888 105.375 12.1566C105.133 12.8245 105.012 13.6207 105.012 14.5455Z" fill="black"/>
<path d="M10.0128 28.5071H7.52699C7.49385 28.2519 7.4259 28.0215 7.32315 27.8161C7.22041 27.6106 7.08452 27.4349 6.91548 27.2891C6.74645 27.1432 6.54593 27.0322 6.31392 26.956C6.08523 26.8764 5.83168 26.8366 5.55327 26.8366C5.05942 26.8366 4.63352 26.9576 4.27557 27.1996C3.92093 27.4415 3.64749 27.7912 3.45526 28.2486C3.26634 28.706 3.17188 29.2595 3.17188 29.9091C3.17188 30.5852 3.26799 31.152 3.46023 31.6094C3.65578 32.0634 3.92921 32.4065 4.28054 32.6385C4.63518 32.8672 5.05445 32.9815 5.53835 32.9815C5.81013 32.9815 6.05706 32.9467 6.27912 32.8771C6.5045 32.8075 6.7017 32.7064 6.87074 32.5739C7.04309 32.438 7.18395 32.2739 7.29332 32.0817C7.40601 31.8861 7.4839 31.6657 7.52699 31.4205L10.0128 31.4354C9.9697 31.8861 9.83878 32.3303 9.62003 32.7678C9.40459 33.2053 9.10795 33.6046 8.73011 33.9659C8.35227 34.3239 7.89157 34.6089 7.34801 34.821C6.80777 35.0331 6.18797 35.1392 5.48864 35.1392C4.56724 35.1392 3.74195 34.937 3.01278 34.5327C2.28693 34.125 1.71354 33.5317 1.29261 32.7528C0.871686 31.974 0.661222 31.026 0.661222 29.9091C0.661222 28.7888 0.875 27.8393 1.30256 27.0604C1.73011 26.2815 2.30848 25.6899 3.03764 25.2855C3.76681 24.8812 4.58381 24.679 5.48864 24.679C6.10511 24.679 6.67519 24.7652 7.19886 24.9375C7.72254 25.1065 8.18324 25.3551 8.58097 25.6832C8.97869 26.008 9.30185 26.4074 9.55043 26.8814C9.79901 27.3554 9.95312 27.8973 10.0128 28.5071ZM10.441 35V24.8182H17.5404V26.8168H12.9019V28.9048H17.1775V30.9084H12.9019V33.0014H17.5404V35H10.441ZM26.7671 24.8182V35H24.679L20.6272 29.1236H20.5626V35H18.1016V24.8182H20.2195L24.2266 30.6847H24.3111V24.8182H26.7671ZM27.0014 26.8168V24.8182H35.6072V26.8168H32.5199V35H30.0937V26.8168H27.0014ZM35.8291 35V24.8182H40.0351C40.7974 24.8182 41.4553 24.9557 42.0088 25.2308C42.5656 25.5026 42.9948 25.8937 43.2964 26.4041C43.5981 26.9112 43.7489 27.5128 43.7489 28.2088C43.7489 28.9148 43.5947 29.5147 43.2865 30.0085C42.9783 30.4991 42.5408 30.8736 41.974 31.1321C41.4072 31.3873 40.7361 31.5149 39.9605 31.5149H37.3007V29.576H39.5031C39.8743 29.576 40.1842 29.5279 40.4328 29.4318C40.6847 29.3324 40.8753 29.1832 41.0045 28.9844C41.1338 28.7822 41.1984 28.5237 41.1984 28.2088C41.1984 27.8939 41.1338 27.6338 41.0045 27.4283C40.8753 27.2195 40.6847 27.0637 40.4328 26.9609C40.1809 26.8549 39.871 26.8018 39.5031 26.8018H38.2901V35H35.8291ZM41.5614 30.3466L44.0969 35H41.4122L38.9264 30.3466H41.5614ZM44.1186 35V24.8182H51.2181V26.8168H46.5796V28.9048H50.8551V30.9084H46.5796V33.0014H51.2181V35H44.1186Z" fill="black"/>
</svg>
