<svg width="30" height="30" viewBox="0 0 30 30" fill="none" xmlns="http://www.w3.org/2000/svg">
<path fill-rule="evenodd" clip-rule="evenodd" d="M15.0101 0C17.4367 0 19.8541 0.598599 22.002 1.73105C29.3148 5.58957 32.1272 14.6782 28.2713 21.9936C25.6412 26.9819 20.4631 30 14.9929 30C13.9243 30 12.8451 29.885 11.7711 29.6472C11.1661 29.5124 10.7844 28.9125 10.9178 28.3073C11.0512 27.7021 11.6496 27.3228 12.2585 27.4536C17.8449 28.6958 23.6122 26.0146 26.2845 20.9457C29.5632 14.7271 27.1722 6.99819 20.9545 3.71845C19.1289 2.75514 17.0735 2.2464 15.0088 2.2464H14.9943C7.96542 2.2464 2.24565 7.96679 2.24565 14.998C2.243 17.0462 2.74233 19.0851 3.68946 20.8968L3.97743 21.4597C4.33013 22.1204 4.40806 22.941 4.17954 23.6837C3.86383 24.5161 3.60096 25.3262 3.38432 26.1322C4.22709 25.8785 5.25612 25.5046 5.99982 25.2337L6.30497 25.124C6.88223 24.9086 7.53082 25.2139 7.74218 25.7979C7.95353 26.3807 7.65103 27.0255 7.06848 27.2356L6.7673 27.3453L6.71607 27.3639C5.6087 27.7652 4.11761 28.3055 3.10559 28.5319C3.01841 28.5504 2.92462 28.5623 2.83876 28.5597C2.14922 28.5597 1.72915 28.2808 1.49798 28.0456C1.14264 27.6849 0.973559 27.1788 0.993373 26.5419C0.996015 26.4692 1.00526 26.3939 1.02243 26.3212C1.28927 25.1848 1.63668 24.051 2.05675 22.9529C2.08713 22.8459 2.06864 22.6516 1.98277 22.4891L1.69348 21.9275C0.585196 19.8053 -0.00263306 17.4043 8.86631e-06 14.9967C8.86631e-06 6.72731 6.72635 0 14.9929 0H15.0101ZM6.60514 14.999C6.60514 14.0145 7.40432 13.2151 8.38844 13.2151C9.37256 13.2151 10.1717 14.0145 10.1717 14.999C10.1717 15.9821 9.37256 16.7816 8.38844 16.7816C7.40432 16.7816 6.60514 15.9821 6.60514 14.999ZM16.7767 14.9979C16.7767 14.0147 15.9775 13.214 14.9934 13.214C14.0093 13.214 13.2101 14.0147 13.2101 14.9979C13.2101 15.981 14.0093 16.7818 14.9934 16.7818C15.9775 16.7818 16.7767 15.981 16.7767 14.9979ZM21.5983 13.214C22.5824 13.214 23.3816 14.0147 23.3816 14.9979C23.3816 15.981 22.5824 16.7818 21.5983 16.7818C20.6142 16.7818 19.815 15.981 19.815 14.9979C19.815 14.0147 20.6142 13.214 21.5983 13.214Z" fill="white"/>
</svg>
