<?xml version="1.0" standalone="no"?>
<!DOCTYPE svg PUBLIC "-//W3C//DTD SVG 20010904//EN"
 "http://www.w3.org/TR/2001/REC-SVG-20010904/DTD/svg10.dtd">
<svg version="1.0" xmlns="http://www.w3.org/2000/svg"
 width="260.000000pt" height="260.000000pt" viewBox="0 0 260.000000 260.000000"
 preserveAspectRatio="xMidYMid meet">
<metadata>
Created by potrace 1.14, written by Peter Selinger 2001-2017
</metadata>
<g transform="translate(0.000000,260.000000) scale(0.100000,-0.100000)"
fill="#000000" stroke="none">
<path d="M0 1300 l0 -1300 1300 0 1300 0 0 1300 0 1300 -1300 0 -1300 0 0
-1300z m370 205 l0 -175 86 0 85 0 -3 -37 -3 -38 -130 0 -130 0 -3 213 -2 212
50 0 50 0 0 -175z m1097 156 c52 -24 73 -63 73 -136 0 -49 -4 -60 -34 -92 -32
-35 -38 -37 -104 -41 l-71 -4 -3 -67 -3 -66 -45 0 -45 0 -3 213 -2 212 97 0
c75 0 108 -5 140 -19z m-827 -189 c0 -108 13 -142 55 -142 42 0 55 34 55 142
l0 98 45 0 45 0 0 -160 0 -160 -45 0 c-43 0 -45 1 -45 29 l0 29 -29 -29 c-40
-40 -89 -40 -133 0 l-33 29 -3 131 -4 131 46 0 46 0 0 -98z m332 46 l25 -53
27 53 c26 51 27 52 71 52 l45 0 -40 -80 -40 -80 40 -73 c22 -41 40 -77 40 -80
0 -4 -19 -7 -42 -7 -42 0 -44 1 -72 56 l-30 56 -28 -56 c-28 -56 -29 -56 -74
-56 -25 0 -44 4 -42 8 2 4 21 42 42 83 l39 75 -42 77 -42 77 48 0 49 0 26 -52z
m678 26 l0 -27 21 27 c28 36 79 37 79 1 l0 -24 36 24 c44 30 118 34 165 9 35
-18 68 -82 69 -131 l0 -33 -100 0 c-87 0 -100 -2 -100 -17 0 -44 72 -71 100
-38 14 17 100 21 100 5 0 -6 -15 -27 -33 -47 -29 -31 -41 -37 -88 -41 -69 -5
-122 16 -149 60 -17 27 -20 46 -18 106 3 69 2 72 -19 72 -13 0 -32 -9 -43 -20
-17 -17 -20 -33 -20 -120 l0 -100 -45 0 -45 0 0 160 0 160 45 0 c42 0 45 -2
45 -26z m480 0 l0 -27 21 27 c16 21 29 26 63 26 77 0 118 -53 119 -154 1 -104
-45 -166 -123 -166 -19 0 -40 9 -55 25 l-25 24 0 -85 0 -85 -47 3 -48 3 -3
218 -2 217 50 0 c47 0 50 -1 50 -26z m-1735 -389 c14 -13 25 -29 25 -35 0 -15
-36 -12 -50 5 -16 20 -56 19 -64 -1 -13 -34 -6 -83 13 -94 25 -13 27 -13 45 6
9 8 25 14 37 12 l21 -3 -22 -27 c-23 -30 -73 -38 -110 -18 -23 13 -41 72 -33
111 13 64 93 90 138 44z m155 5 c0 -17 -7 -20 -40 -20 -33 0 -40 -3 -40 -20 0
-17 7 -20 40 -20 29 0 40 -4 40 -15 0 -11 -11 -15 -40 -15 -36 0 -40 -2 -40
-25 0 -22 4 -25 40 -25 29 0 40 -4 40 -15 0 -12 -13 -15 -60 -15 l-60 0 0 95
0 95 60 0 c53 0 60 -2 60 -20z m87 -37 l38 -57 3 57 c3 49 6 57 22 57 18 0 20
-7 20 -95 0 -87 -2 -95 -19 -95 -12 0 -31 19 -52 52 l-34 53 -3 -53 c-3 -44
-6 -52 -23 -52 -17 0 -19 8 -19 95 0 116 12 122 67 38z m243 37 c0 -16 -7 -20
-30 -20 l-30 0 0 -75 c0 -68 -2 -75 -20 -75 -18 0 -20 7 -20 75 0 73 -1 75
-25 75 -18 0 -25 5 -25 20 0 18 7 20 75 20 68 0 75 -2 75 -20z m118 4 c24 -17
30 -62 11 -92 -9 -14 -8 -25 4 -48 16 -28 16 -27 17 64 l0 92 65 0 c58 0 65
-2 65 -20 0 -17 -7 -20 -45 -20 -38 0 -45 -3 -45 -20 0 -17 7 -20 40 -20 54 0
56 -27 3 -32 -30 -2 -38 -7 -38 -23 0 -16 8 -21 43 -23 28 -2 42 -8 42 -18 0
-11 -18 -14 -89 -14 l-89 0 -12 30 c-7 17 -19 30 -26 30 -9 0 -14 -11 -14 -30
0 -23 -4 -30 -20 -30 -19 0 -20 7 -20 95 l0 95 43 0 c23 0 53 -7 65 -16z"/>
<path d="M1330 1529 l0 -72 42 6 c46 6 78 35 78 69 0 32 -45 68 -85 68 l-35 0
0 -71z"/>
<path d="M1832 1488 c-7 -7 -12 -20 -12 -30 0 -15 9 -18 55 -18 46 0 55 3 55
18 0 27 -20 42 -55 42 -17 0 -36 -5 -43 -12z"/>
<path d="M2146 1481 c-21 -23 -25 -96 -8 -128 30 -54 102 -18 102 52 0 79 -53
121 -94 76z"/>
<path d="M930 1115 c0 -22 4 -26 23 -23 14 2 22 10 22 23 0 13 -8 21 -22 23
-19 3 -23 -1 -23 -23z"/>
</g>
</svg>
